<svg width="328" height="50" viewBox="0 0 328 50" fill="none" xmlns="http://www.w3.org/2000/svg">
<rect width="328" height="50" rx="10" fill="#EE685F"/>
<path d="M110.809 31V19.8H112.521L117.417 27.976H116.521L121.337 19.8H123.049L123.065 31H121.097L121.081 22.888H121.497L117.401 29.72H116.473L112.313 22.888H112.793V31H110.809ZM129.738 31.112C128.863 31.112 128.085 30.9253 127.402 30.552C126.719 30.168 126.181 29.6453 125.786 28.984C125.391 28.3227 125.194 27.5707 125.194 26.728C125.194 25.8747 125.391 25.1227 125.786 24.472C126.181 23.8107 126.719 23.2933 127.402 22.92C128.085 22.5467 128.863 22.36 129.738 22.36C130.623 22.36 131.407 22.5467 132.09 22.92C132.783 23.2933 133.322 23.8053 133.706 24.456C134.101 25.1067 134.298 25.864 134.298 26.728C134.298 27.5707 134.101 28.3227 133.706 28.984C133.322 29.6453 132.783 30.168 132.09 30.552C131.407 30.9253 130.623 31.112 129.738 31.112ZM129.738 29.4C130.229 29.4 130.666 29.2933 131.05 29.08C131.434 28.8667 131.733 28.5573 131.946 28.152C132.17 27.7467 132.282 27.272 132.282 26.728C132.282 26.1733 132.17 25.6987 131.946 25.304C131.733 24.8987 131.434 24.5893 131.05 24.376C130.666 24.1627 130.234 24.056 129.754 24.056C129.263 24.056 128.826 24.1627 128.442 24.376C128.069 24.5893 127.77 24.8987 127.546 25.304C127.322 25.6987 127.21 26.1733 127.21 26.728C127.21 27.272 127.322 27.7467 127.546 28.152C127.77 28.5573 128.069 28.8667 128.442 29.08C128.826 29.2933 129.258 29.4 129.738 29.4ZM136.21 31V22.456H138.114V24.808L137.89 24.12C138.146 23.544 138.546 23.1067 139.09 22.808C139.645 22.5093 140.333 22.36 141.154 22.36V24.264C141.069 24.2427 140.989 24.232 140.914 24.232C140.84 24.2213 140.765 24.216 140.69 24.216C139.933 24.216 139.33 24.44 138.882 24.888C138.434 25.3253 138.21 25.9813 138.21 26.856V31H136.21ZM146.789 31.112C145.84 31.112 145.008 30.9253 144.293 30.552C143.589 30.168 143.04 29.6453 142.645 28.984C142.261 28.3227 142.069 27.5707 142.069 26.728C142.069 25.8747 142.256 25.1227 142.629 24.472C143.013 23.8107 143.536 23.2933 144.197 22.92C144.869 22.5467 145.632 22.36 146.485 22.36C147.317 22.36 148.058 22.5413 148.709 22.904C149.36 23.2667 149.872 23.7787 150.245 24.44C150.618 25.1013 150.805 25.88 150.805 26.776C150.805 26.8613 150.8 26.9573 150.789 27.064C150.789 27.1707 150.784 27.272 150.773 27.368H143.653V26.04H149.717L148.933 26.456C148.944 25.9653 148.842 25.5333 148.629 25.16C148.416 24.7867 148.122 24.4933 147.749 24.28C147.386 24.0667 146.965 23.96 146.485 23.96C145.994 23.96 145.562 24.0667 145.189 24.28C144.826 24.4933 144.538 24.792 144.325 25.176C144.122 25.5493 144.021 25.992 144.021 26.504V26.824C144.021 27.336 144.138 27.7893 144.373 28.184C144.608 28.5787 144.938 28.8827 145.365 29.096C145.792 29.3093 146.282 29.416 146.837 29.416C147.317 29.416 147.749 29.3413 148.133 29.192C148.517 29.0427 148.858 28.808 149.157 28.488L150.229 29.72C149.845 30.168 149.36 30.5147 148.773 30.76C148.197 30.9947 147.536 31.112 146.789 31.112ZM157.148 31V22.456H159.052V24.808L158.828 24.12C159.084 23.544 159.484 23.1067 160.028 22.808C160.583 22.5093 161.271 22.36 162.092 22.36V24.264C162.007 24.2427 161.927 24.232 161.852 24.232C161.777 24.2213 161.703 24.216 161.628 24.216C160.871 24.216 160.268 24.44 159.82 24.888C159.372 25.3253 159.148 25.9813 159.148 26.856V31H157.148ZM167.726 31.112C166.777 31.112 165.945 30.9253 165.23 30.552C164.526 30.168 163.977 29.6453 163.582 28.984C163.198 28.3227 163.006 27.5707 163.006 26.728C163.006 25.8747 163.193 25.1227 163.566 24.472C163.95 23.8107 164.473 23.2933 165.134 22.92C165.806 22.5467 166.569 22.36 167.422 22.36C168.254 22.36 168.996 22.5413 169.646 22.904C170.297 23.2667 170.809 23.7787 171.182 24.44C171.556 25.1013 171.742 25.88 171.742 26.776C171.742 26.8613 171.737 26.9573 171.726 27.064C171.726 27.1707 171.721 27.272 171.71 27.368H164.59V26.04H170.654L169.87 26.456C169.881 25.9653 169.78 25.5333 169.566 25.16C169.353 24.7867 169.06 24.4933 168.686 24.28C168.324 24.0667 167.902 23.96 167.422 23.96C166.932 23.96 166.5 24.0667 166.126 24.28C165.764 24.4933 165.476 24.792 165.262 25.176C165.06 25.5493 164.958 25.992 164.958 26.504V26.824C164.958 27.336 165.076 27.7893 165.31 28.184C165.545 28.5787 165.876 28.8827 166.302 29.096C166.729 29.3093 167.22 29.416 167.774 29.416C168.254 29.416 168.686 29.3413 169.07 29.192C169.454 29.0427 169.796 28.808 170.094 28.488L171.166 29.72C170.782 30.168 170.297 30.5147 169.71 30.76C169.134 30.9947 168.473 31.112 167.726 31.112ZM175.779 31L172.115 22.456H174.195L177.347 29.992H176.323L179.587 22.456H181.507L177.843 31H175.779ZM182.757 31V22.456H184.757V31H182.757ZM183.765 21.048C183.392 21.048 183.083 20.9307 182.837 20.696C182.603 20.4613 182.485 20.1787 182.485 19.848C182.485 19.5067 182.603 19.224 182.837 19C183.083 18.7653 183.392 18.648 183.765 18.648C184.139 18.648 184.443 18.76 184.677 18.984C184.923 19.1973 185.045 19.4693 185.045 19.8C185.045 20.152 184.928 20.4507 184.693 20.696C184.459 20.9307 184.149 21.048 183.765 21.048ZM191.398 31.112C190.449 31.112 189.617 30.9253 188.902 30.552C188.198 30.168 187.649 29.6453 187.254 28.984C186.87 28.3227 186.678 27.5707 186.678 26.728C186.678 25.8747 186.865 25.1227 187.238 24.472C187.622 23.8107 188.145 23.2933 188.806 22.92C189.478 22.5467 190.241 22.36 191.094 22.36C191.926 22.36 192.668 22.5413 193.318 22.904C193.969 23.2667 194.481 23.7787 194.854 24.44C195.228 25.1013 195.414 25.88 195.414 26.776C195.414 26.8613 195.409 26.9573 195.398 27.064C195.398 27.1707 195.393 27.272 195.382 27.368H188.262V26.04H194.326L193.542 26.456C193.553 25.9653 193.452 25.5333 193.238 25.16C193.025 24.7867 192.732 24.4933 192.358 24.28C191.996 24.0667 191.574 23.96 191.094 23.96C190.604 23.96 190.172 24.0667 189.798 24.28C189.436 24.4933 189.148 24.792 188.934 25.176C188.732 25.5493 188.63 25.992 188.63 26.504V26.824C188.63 27.336 188.748 27.7893 188.982 28.184C189.217 28.5787 189.548 28.8827 189.974 29.096C190.401 29.3093 190.892 29.416 191.446 29.416C191.926 29.416 192.358 29.3413 192.742 29.192C193.126 29.0427 193.468 28.808 193.766 28.488L194.838 29.72C194.454 30.168 193.969 30.5147 193.382 30.76C192.806 30.9947 192.145 31.112 191.398 31.112ZM199.067 31L195.931 22.456H197.819L200.507 29.992H199.611L202.427 22.456H204.107L206.843 29.992H205.963L208.731 22.456H210.507L207.355 31H205.435L202.939 24.328H203.531L200.987 31H199.067ZM214.413 31.112C213.698 31.112 213.01 31.0213 212.349 30.84C211.698 30.648 211.181 30.4187 210.797 30.152L211.565 28.632C211.949 28.8773 212.408 29.08 212.941 29.24C213.474 29.4 214.008 29.48 214.541 29.48C215.17 29.48 215.624 29.3947 215.901 29.224C216.189 29.0533 216.333 28.824 216.333 28.536C216.333 28.3013 216.237 28.1253 216.045 28.008C215.853 27.88 215.602 27.784 215.293 27.72C214.984 27.656 214.637 27.5973 214.253 27.544C213.88 27.4907 213.501 27.4213 213.117 27.336C212.744 27.24 212.402 27.1067 212.093 26.936C211.784 26.7547 211.533 26.5147 211.341 26.216C211.149 25.9173 211.053 25.5227 211.053 25.032C211.053 24.488 211.208 24.0187 211.517 23.624C211.826 23.2187 212.258 22.9093 212.813 22.696C213.378 22.472 214.045 22.36 214.813 22.36C215.389 22.36 215.97 22.424 216.557 22.552C217.144 22.68 217.629 22.8613 218.013 23.096L217.245 24.616C216.84 24.3707 216.429 24.2053 216.013 24.12C215.608 24.024 215.202 23.976 214.797 23.976C214.189 23.976 213.736 24.0667 213.437 24.248C213.149 24.4293 213.005 24.6587 213.005 24.936C213.005 25.192 213.101 25.384 213.293 25.512C213.485 25.64 213.736 25.7413 214.045 25.816C214.354 25.8907 214.696 25.9547 215.069 26.008C215.453 26.0507 215.832 26.12 216.205 26.216C216.578 26.312 216.92 26.4453 217.229 26.616C217.549 26.776 217.805 27.0053 217.997 27.304C218.189 27.6027 218.285 27.992 218.285 28.472C218.285 29.0053 218.125 29.4693 217.805 29.864C217.496 30.2587 217.053 30.568 216.477 30.792C215.901 31.0053 215.213 31.112 214.413 31.112Z" fill="white"/>
</svg>
