<svg width="40" height="40" viewBox="0 0 40 40" fill="none" xmlns="http://www.w3.org/2000/svg">
<path d="M0.5 0.5H30C35.2467 0.5 39.5 4.7533 39.5 10V30C39.5 35.2467 35.2467 39.5 30 39.5H0.5V0.5Z" fill="#EE685F" stroke="#EE685F"/>
<path d="M27.3188 12.681C27.2344 12.5971 27.1278 12.539 27.0116 12.5135C26.8953 12.488 26.7742 12.4963 26.6625 12.5373L12.9125 17.5373C12.7939 17.5823 12.6918 17.6623 12.6198 17.7666C12.5477 17.871 12.5092 17.9948 12.5092 18.1217C12.5092 18.2485 12.5477 18.3723 12.6198 18.4767C12.6918 18.5811 12.7939 18.6611 12.9125 18.706L18.9125 21.106L21.3125 27.106C21.3576 27.2194 21.4349 27.3171 21.5348 27.3871C21.6348 27.457 21.753 27.4962 21.875 27.4998C22.0013 27.4972 22.1239 27.4564 22.2265 27.3828C22.3292 27.3091 22.4071 27.2061 22.45 27.0873L27.45 13.3373C27.4926 13.2267 27.5029 13.1063 27.4796 12.9901C27.4564 12.8739 27.4006 12.7667 27.3188 12.681ZM21.875 25.1248L20.1313 20.7498L23.125 17.756L22.2438 16.8748L19.225 19.8935L14.875 18.1248L25.8313 14.1685L21.875 25.1248Z" fill="white"/>
</svg>
