<svg width="25" height="14" viewBox="0 0 25 14" fill="none" xmlns="http://www.w3.org/2000/svg">
<path d="M0.692 13V0.399999H5.876C6.992 0.399999 7.946 0.579999 8.738 0.94C9.542 1.3 10.16 1.816 10.592 2.488C11.024 3.16 11.24 3.958 11.24 4.882C11.24 5.806 11.024 6.604 10.592 7.276C10.16 7.936 9.542 8.446 8.738 8.806C7.946 9.154 6.992 9.328 5.876 9.328H1.988L3.032 8.266V13H0.692ZM8.936 13L5.75 8.428H8.252L11.456 13H8.936ZM3.032 8.518L1.988 7.402H5.768C6.8 7.402 7.574 7.18 8.09 6.736C8.618 6.292 8.882 5.674 8.882 4.882C8.882 4.078 8.618 3.46 8.09 3.028C7.574 2.596 6.8 2.38 5.768 2.38H1.988L3.032 1.228V8.518ZM19.276 13.18C17.548 13.18 16.192 12.694 15.208 11.722C14.236 10.75 13.75 9.346 13.75 7.51V0.399999H16.09V7.42C16.09 8.716 16.366 9.658 16.918 10.246C17.482 10.834 18.274 11.128 19.294 11.128C20.314 11.128 21.1 10.834 21.652 10.246C22.204 9.658 22.48 8.716 22.48 7.42V0.399999H24.784V7.51C24.784 9.346 24.292 10.75 23.308 11.722C22.336 12.694 20.992 13.18 19.276 13.18Z" fill="#EE685F"/>
</svg>
