<svg width="16" height="16" viewBox="0 0 16 16" fill="none" xmlns="http://www.w3.org/2000/svg">
<path d="M15.3188 0.681045C15.2344 0.597091 15.1278 0.538964 15.0116 0.513499C14.8953 0.488034 14.7742 0.49629 14.6625 0.537295L0.912501 5.53729C0.793918 5.58227 0.691825 5.66226 0.619782 5.76664C0.547739 5.87102 0.509155 5.99484 0.509155 6.12167C0.509155 6.2485 0.547739 6.37232 0.619782 6.4767C0.691825 6.58108 0.793918 6.66107 0.912501 6.70605L6.9125 9.10604L9.3125 15.106C9.35759 15.2194 9.43488 15.3171 9.53484 15.3871C9.63479 15.457 9.75304 15.4962 9.875 15.4998C10.0013 15.4972 10.1239 15.4564 10.2265 15.3828C10.3292 15.3091 10.4071 15.2061 10.45 15.0873L15.45 1.3373C15.4926 1.22672 15.5029 1.10631 15.4796 0.990122C15.4564 0.873931 15.4006 0.766739 15.3188 0.681045ZM9.875 13.1248L8.13125 8.74979L11.125 5.75604L10.2438 4.87479L7.225 7.89354L2.875 6.12479L13.8313 2.16855L9.875 13.1248Z" fill="white"/>
</svg>
